<?xml version="1.0" encoding="UTF-8"?>
<svg id="Layer_1" xmlns="http://www.w3.org/2000/svg" version="1.1" viewBox="0 0 23.8 23.8">
  <!-- Generator: Adobe Illustrator 30.6.0, SVG Export Plug-In . SVG Version: 2.1.4 Build 109)  -->
  <defs>
    <style>
      .st0 {
        fill: #fff;
      }
    </style>
  </defs>
  <path class="st0" d="M23.8,11.3h-6.4l-3.4,7.2L6.4,2.5l-3,6.2h-1.9v-2.7C1.6,3.6,3.6,1.6,6.1,1.6h11.6c2.5,0,4.5,2,4.5,4.5v.8h1.6v-.8c0-3.3-2.7-6.1-6.1-6.1H6.1C2.7,0,0,2.7,0,6.1v11.7c0,3.3,2.7,6.1,6.1,6.1h11.6c3.3,0,6.1-2.7,6.1-6.1v-5.1h0v-1.4ZM22.2,17.7c0,2.5-2,4.5-4.5,4.5H6.1c-2.5,0-4.5-2-4.5-4.5v-7.6h2.8l2.1-4.4,7.6,16,4.3-9.1h3.9v5.1Z"/>
</svg>