<?xml version="1.0" encoding="UTF-8"?>
<svg id="Layer_1" data-name="Layer 1" xmlns="http://www.w3.org/2000/svg" xmlns:xlink="http://www.w3.org/1999/xlink" viewBox="0 0 220.68 106.7">
  <defs>
    <clipPath id="clippath">
      <polygon points="114.47 58.28 94.9 16.93 89.47 28.36 80.3 28.36 80.3 24.81 87.23 24.81 94.9 8.65 114.45 49.97 123.23 31.27 139.73 31.27 139.73 34.81 125.48 34.81 114.47 58.28" style="fill: none;"/>
    </clipPath>
    <linearGradient id="linear-gradient" x1="4414.01" y1="164.6" x2="4414.08" y2="164.6" gradientTransform="translate(-3754484.8666 140045.7326) scale(850.601 -850.601)" gradientUnits="userSpaceOnUse">
      <stop offset="0" stop-color="#ee783b"/>
      <stop offset=".42" stop-color="#ee783b"/>
      <stop offset=".45" stop-color="#d36c38"/>
      <stop offset=".54" stop-color="#935133"/>
      <stop offset=".62" stop-color="#603c2e"/>
      <stop offset=".68" stop-color="#3c2c2b"/>
      <stop offset=".74" stop-color="#262329"/>
      <stop offset=".77" stop-color="#1e2029"/>
      <stop offset="1" stop-color="#1e2029"/>
    </linearGradient>
  </defs>
  <g>
    <g style="clip-path: url(#clippath);">
      <rect x="80.3" y="8.65" width="59.43" height="49.62" style="fill: url(#linear-gradient);"/>
    </g>
    <path d="M124.01,63.76h-30.04c-8.66,0-15.7-7.05-15.7-15.7v-30.21c0-8.66,7.05-15.7,15.7-15.7h30.04c8.66,0,15.7,7.05,15.7,15.7v2.03h-4.05v-2.03c0-6.43-5.23-11.65-11.65-11.65h-30.04c-6.43,0-11.65,5.23-11.65,11.65v30.21c0,6.43,5.23,11.66,11.65,11.66h30.04c6.43,0,11.65-5.23,11.65-11.66v-14.01h4.05v14.01c0,8.66-7.05,15.7-15.7,15.7" style="fill: #292832;"/>
  </g>
  <g>
    <path d="M21.04,83.31v8.52c-.68.6-1.61,1.08-2.78,1.45-1.18.37-2.38.56-3.6.56-2.6,0-4.62-.79-6.06-2.39-1.44-1.59-2.16-3.84-2.16-6.76s.77-5.11,2.3-6.74c1.53-1.62,3.65-2.44,6.35-2.44,2.14,0,3.98.68,5.52,2.04l-2.14,2.98c-.96-.85-1.99-1.27-3.08-1.27-1.23,0-2.16.46-2.8,1.39-.64.93-.96,2.27-.96,4.03,0,3.6,1.09,5.39,3.26,5.39.55,0,1.05-.09,1.52-.27v-3.23h-1.69v-3.28h6.34Z" style="fill: #ee783b;"/>
    <path d="M37.69,76v11.23c0,2.14-.61,3.77-1.83,4.91-1.22,1.14-2.98,1.7-5.28,1.7s-4.06-.57-5.28-1.7c-1.22-1.13-1.83-2.77-1.83-4.91v-11.23h4.97v11.48c0,1.79.71,2.68,2.14,2.68s2.14-.89,2.14-2.68v-11.48h4.97Z" style="fill: #ee783b;"/>
    <rect x="40.35" y="76" width="4.97" height="17.37" style="fill: #ee783b;"/>
    <polygon points="59.24 89.59 59.24 93.37 48.23 93.37 48.23 76 53.2 76 53.2 89.59 59.24 89.59" style="fill: #ee783b;"/>
    <polygon points="70.35 76 75.32 76 75.32 93.37 70.35 93.37 70.35 86.19 66.23 86.19 66.23 93.37 61.26 93.37 61.26 76 66.23 76 66.23 82.48 70.35 82.48 70.35 76" style="fill: #ee783b;"/>
    <polygon points="78.23 93.37 78.23 76 89.24 76 89.24 79.75 83.2 79.75 83.2 82.83 88.3 82.83 88.3 86.21 83.2 86.21 83.2 89.62 89.27 89.62 89.27 93.37 78.23 93.37" style="fill: #ee783b;"/>
    <path d="M106.37,93.37h-5.27l-3.68-6.79h-.7v6.79h-4.97v-17.37h5.44c5.45,0,8.18,1.8,8.18,5.39,0,1.19-.28,2.21-.85,3.06s-1.33,1.44-2.31,1.79l4.15,7.13ZM96.72,79.4v4.25h1.37c1.59,0,2.39-.73,2.39-2.19,0-1.38-.78-2.06-2.34-2.06h-1.42Z" style="fill: #ee783b;"/>
    <path d="M107.76,93.37v-17.37h6.34l2.59,12.63,2.54-12.63h6.34v17.37h-4.42v-6.11c0-2.3.11-4.42.32-6.36h-.07l-2.81,12.48h-3.78l-2.86-12.48h-.07c.21,1.94.32,4.06.32,6.36v6.11h-4.42Z" style="fill: #ee783b;"/>
    <polygon points="128.46 93.37 128.46 76 139.47 76 139.47 79.75 133.43 79.75 133.43 82.83 138.53 82.83 138.53 86.21 133.43 86.21 133.43 89.62 139.5 89.62 139.5 93.37 128.46 93.37" style="fill: #ee783b;"/>
    <polygon points="144.86 93.37 140.29 76 145.46 76 148.02 89.34 148.09 89.34 150.61 76 155.75 76 151.33 93.37 144.86 93.37" style="fill: #292832;"/>
    <rect x="156.97" y="76" width="4.97" height="17.37" style="fill: #292832;"/>
    <path d="M163.16,93.37l4.67-17.37h6.69l4.67,17.37h-5.17l-.72-3.41h-4.3l-.7,3.41h-5.14ZM169.67,86.49h2.98l-1.47-7.16h-.05l-1.47,7.16Z" style="fill: #292832;"/>
    <path d="M180.41,93.37v-17.37h6.29l3.63,13.35h.07c-.3-2.73-.46-4.87-.47-6.41v-6.93h4.4v17.37h-6.39l-3.36-12.2h-.07c.17,1.48.27,3.33.3,5.57v6.64h-4.4Z" style="fill: #292832;"/>
    <path d="M195.54,93.37l4.67-17.37h6.69l4.67,17.37h-5.17l-.72-3.41h-4.3l-.7,3.41h-5.14ZM202.05,86.49h2.98l-1.47-7.16h-.05l-1.47,7.16Z" style="fill: #292832;"/>
    <path d="M32.4,97.5h3.3c.6,0,.86.21.86.76v.87c0,.54-.27.75-.86.75h-2.56v1.53h-.74v-3.9ZM33.14,98.07v1.23h2.23c.3,0,.44-.07.44-.37v-.5c0-.3-.15-.37-.44-.37h-2.23Z" style="fill: #292832;"/>
    <polygon points="42.58 97.5 46.51 97.5 46.51 98.08 43.32 98.08 43.32 99.08 45.24 99.08 45.24 99.66 43.32 99.66 43.32 100.83 46.55 100.83 46.55 101.4 42.58 101.4 42.58 97.5" style="fill: #292832;"/>
    <path d="M52.53,97.5h3.14c.57,0,.82.21.82.76v.87c0,.53-.25.75-.82.75h-.52l1.72,1.53h-.99l-1.56-1.53h-1.07v1.53h-.74v-3.9ZM53.27,98.07v1.26h2.08c.32,0,.41-.08.41-.4v-.47c0-.32-.14-.4-.41-.4h-2.08Z" style="fill: #292832;"/>
    <path d="M63.49,98.08v1.01h2.5c.75,0,.95.22.95.92v.47c0,.72-.21.92-.95.92h-2.38c-.75,0-.96-.2-.96-.92v-.11l.67-.14v.58h2.95v-1.1h-2.51c-.74,0-.95-.2-.95-.92v-.37c0-.73.22-.93.95-.93h2.17c.68,0,.96.18.96.86v.09l-.67.15v-.51h-2.73Z" style="fill: #292832;"/>
    <path d="M74.11,97.5h2.82c.75,0,.96.22.96.93v2.05c0,.72-.22.92-.96.92h-2.82c-.75,0-.96-.19-.96-.92v-2.05c0-.71.21-.93.96-.93M77.15,98.08h-3.26v2.73h3.26v-2.73Z" style="fill: #292832;"/>
    <path d="M84.88,98.98v2.42h-.68v-3.9h.56l2.86,2.55c.18.16.33.33.47.53-.05-.25-.06-.49-.06-.73v-2.36h.68v3.9h-.51l-2.92-2.59c-.17-.16-.33-.32-.46-.53.04.23.05.47.05.7" style="fill: #292832;"/>
    <path d="M96.73,97.5h.67l2.31,3.9h-.8l-.51-.91h-2.7l-.5.91h-.74l2.26-3.9ZM98.1,99.93l-1.04-1.86-1.03,1.86h2.07Z" style="fill: #292832;"/>
    <polygon points="105.49 97.5 106.22 97.5 106.22 100.81 109.26 100.81 109.26 101.4 105.49 101.4 105.49 97.5" style="fill: #292832;"/>
    <polygon points="124.94 101.4 124.2 101.4 124.2 98.08 122.36 98.08 122.36 97.5 126.79 97.5 126.79 98.08 124.94 98.08 124.94 101.4" style="fill: #292832;"/>
    <path d="M132.49,97.5h3.14c.57,0,.82.21.82.76v.87c0,.53-.25.75-.82.75h-.52l1.72,1.53h-.99l-1.56-1.53h-1.07v1.53h-.74v-3.9ZM133.23,98.07v1.26h2.08c.32,0,.41-.08.41-.4v-.47c0-.32-.14-.4-.41-.4h-2.08Z" style="fill: #292832;"/>
    <path d="M144.53,97.5h.67l2.31,3.9h-.8l-.51-.91h-2.7l-.5.91h-.74l2.26-3.9ZM145.89,99.93l-1.04-1.86-1.03,1.86h2.07Z" style="fill: #292832;"/>
    <rect x="153.26" y="97.51" width=".74" height="3.89" style="fill: #292832;"/>
    <path d="M161.07,98.98v2.42h-.68v-3.9h.56l2.86,2.55c.18.16.33.33.47.53-.05-.25-.06-.49-.06-.73v-2.36h.68v3.9h-.51l-2.92-2.59c-.17-.16-.33-.32-.46-.53.04.23.06.47.06.7" style="fill: #292832;"/>
    <polygon points="171.3 97.5 175.23 97.5 175.23 98.08 172.04 98.08 172.04 99.08 173.96 99.08 173.96 99.66 172.04 99.66 172.04 100.83 175.27 100.83 175.27 101.4 171.3 101.4 171.3 97.5" style="fill: #292832;"/>
    <path d="M181.25,97.5h3.14c.57,0,.82.21.82.76v.87c0,.53-.25.75-.82.75h-.52l1.72,1.53h-.99l-1.56-1.53h-1.07v1.53h-.74v-3.9ZM181.99,98.07v1.26h2.08c.32,0,.41-.08.41-.4v-.47c0-.32-.14-.4-.41-.4h-2.08Z" style="fill: #292832;"/>
  </g>
</svg>