<?xml version="1.0" encoding="UTF-8"?>
<svg id="Layer_1" xmlns="http://www.w3.org/2000/svg" xmlns:xlink="http://www.w3.org/1999/xlink" version="1.1" viewBox="0 0 220.7 50">
  <!-- Generator: Adobe Illustrator 30.6.0, SVG Export Plug-In . SVG Version: 2.1.4 Build 109)  -->
  <defs>
    <style>
      .st0 {
        fill: none;
      }

      .st1 {
        fill: #292832;
      }

      .st2 {
        fill: url(#linear-gradient);
      }

      .st3 {
        fill: #ee783b;
      }

      .st4 {
        clip-path: url(#clippath);
      }
    </style>
    <clipPath id="clippath">
      <polygon class="st0" points="21.3 37.5 11.6 17.1 8.9 22.7 4.4 22.7 4.4 21 7.8 21 11.6 13 21.2 33.4 25.6 24.2 33.7 24.2 33.7 25.9 26.7 25.9 21.3 37.5"/>
    </clipPath>
    <linearGradient id="linear-gradient" x1="4413.9" y1="223.2" x2="4414" y2="223.2" gradientTransform="translate(-3754484.8666 189863.8827) scale(850.601 -850.601)" gradientUnits="userSpaceOnUse">
      <stop offset="0" stop-color="#ee783b"/>
      <stop offset=".4" stop-color="#ee783b"/>
      <stop offset=".5" stop-color="#d36c38"/>
      <stop offset=".5" stop-color="#935133"/>
      <stop offset=".6" stop-color="#603c2e"/>
      <stop offset=".7" stop-color="#3c2c2b"/>
      <stop offset=".7" stop-color="#262329"/>
      <stop offset=".8" stop-color="#1e2029"/>
      <stop offset="1" stop-color="#1e2029"/>
    </linearGradient>
  </defs>
  <g>
    <g class="st4">
      <rect class="st2" x="4.4" y="13" width="29.4" height="24.5"/>
    </g>
    <path class="st1" d="M26,40.2h-14.9c-4.3,0-7.8-3.5-7.8-7.8v-14.9c0-4.3,3.5-7.8,7.8-7.8h14.9c4.3,0,7.8,3.5,7.8,7.8v1h-2v-1c0-3.2-2.6-5.8-5.8-5.8h-14.9c-3.2,0-5.8,2.6-5.8,5.8v14.9c0,3.2,2.6,5.8,5.8,5.8h14.9c3.2,0,5.8-2.6,5.8-5.8v-6.9h2v6.9c0,4.3-3.5,7.8-7.8,7.8"/>
  </g>
  <path class="st3" d="M51.8,21.5v7.4c-.6.5-1.4.9-2.4,1.3-1,.3-2.1.5-3.1.5-2.3,0-4-.7-5.3-2.1-1.3-1.4-1.9-3.3-1.9-5.9s.7-4.4,2-5.8c1.3-1.4,3.2-2.1,5.5-2.1s3.5.6,4.8,1.8l-1.9,2.6c-.8-.7-1.7-1.1-2.7-1.1s-1.9.4-2.4,1.2c-.6.8-.8,2-.8,3.5,0,3.1.9,4.7,2.8,4.7s.9,0,1.3-.2v-2.8h-1.5v-2.8h5.5Z"/>
  <path class="st3" d="M66.3,15.1v9.8c0,1.9-.5,3.3-1.6,4.3-1.1,1-2.6,1.5-4.6,1.5s-3.5-.5-4.6-1.5c-1.1-1-1.6-2.4-1.6-4.3v-9.8h4.3v10c0,1.6.6,2.3,1.9,2.3s1.9-.8,1.9-2.3v-10h4.3Z"/>
  <rect class="st3" x="68.6" y="15.1" width="4.3" height="15.1"/>
  <polygon class="st3" points="85 26.9 85 30.2 75.4 30.2 75.4 15.1 79.7 15.1 79.7 26.9 85 26.9"/>
  <polygon class="st3" points="94.6 15.1 98.9 15.1 98.9 30.2 94.6 30.2 94.6 24 91 24 91 30.2 86.7 30.2 86.7 15.1 91 15.1 91 20.7 94.6 20.7 94.6 15.1"/>
  <polygon class="st3" points="101.5 30.2 101.5 15.1 111 15.1 111 18.4 105.8 18.4 105.8 21 110.2 21 110.2 24 105.8 24 105.8 26.9 111 26.9 111 30.2 101.5 30.2"/>
  <path class="st3" d="M125.9,30.2h-4.6l-3.2-5.9h-.6v5.9h-4.3v-15.1h4.7c4.7,0,7.1,1.6,7.1,4.7s-.2,1.9-.7,2.7-1.2,1.3-2,1.6l3.6,6.2ZM117.5,18.1v3.7h1.2c1.4,0,2.1-.6,2.1-1.9s-.7-1.8-2-1.8h-1.2Z"/>
  <path class="st3" d="M127.1,30.2v-15.1h5.5l2.2,11,2.2-11h5.5v15.1h-3.8v-5.3c0-2,0-3.8.3-5.5h0l-2.4,10.8h-3.3l-2.5-10.8h0c.2,1.7.3,3.5.3,5.5v5.3h-3.8Z"/>
  <polygon class="st3" points="145.1 30.2 145.1 15.1 154.6 15.1 154.6 18.4 149.4 18.4 149.4 21 153.8 21 153.8 24 149.4 24 149.4 26.9 154.7 26.9 154.7 30.2 145.1 30.2"/>
  <polygon class="st1" points="159.3 30.2 155.4 15.1 159.8 15.1 162.1 26.7 162.1 26.7 164.3 15.1 168.8 15.1 164.9 30.2 159.3 30.2"/>
  <rect class="st1" x="169.8" y="15.1" width="4.3" height="15.1"/>
  <path class="st1" d="M175.2,30.2l4.1-15.1h5.8l4.1,15.1h-4.5l-.6-3h-3.7l-.6,3h-4.5ZM180.9,24.2h2.6l-1.3-6.2h0l-1.3,6.2Z"/>
  <path class="st1" d="M190.2,30.2v-15.1h5.5l3.2,11.6h0c-.3-2.4-.4-4.2-.4-5.6v-6h3.8v15.1h-5.5l-2.9-10.6h0c.1,1.3.2,2.9.3,4.8v5.8h-3.8Z"/>
  <path class="st1" d="M203.3,30.2l4.1-15.1h5.8l4.1,15.1h-4.5l-.6-3h-3.7l-.6,3h-4.5ZM209,24.2h2.6l-1.3-6.2h0l-1.3,6.2Z"/>
  <path class="st1" d="M61.7,33.8h2.9c.5,0,.7.2.7.7v.8c0,.5-.2.6-.7.6h-2.2v1.3h-.6v-3.4ZM62.3,34.3v1.1h1.9c.3,0,.4,0,.4-.3v-.4c0-.3-.1-.3-.4-.3h-1.9Z"/>
  <polygon class="st1" points="70.5 33.8 73.9 33.8 73.9 34.3 71.1 34.3 71.1 35.2 72.8 35.2 72.8 35.7 71.1 35.7 71.1 36.7 74 36.7 74 37.2 70.5 37.2 70.5 33.8"/>
  <path class="st1" d="M79.1,33.8h2.7c.5,0,.7.2.7.7v.8c0,.5-.2.6-.7.6h-.4l1.5,1.3h-.9l-1.4-1.3h-.9v1.3h-.6v-3.4ZM79.8,34.3v1.1h1.8c.3,0,.4,0,.4-.3v-.4c0-.3-.1-.3-.4-.3h-1.8Z"/>
  <path class="st1" d="M88.7,34.3v.9h2.2c.6,0,.8.2.8.8v.4c0,.6-.2.8-.8.8h-2.1c-.6,0-.8-.2-.8-.8h0c0,0,.6-.2.6-.2v.5h2.6v-1h-2.2c-.6,0-.8-.2-.8-.8v-.3c0-.6.2-.8.8-.8h1.9c.6,0,.8.2.8.7h0c0,0-.6.2-.6.2v-.4h-2.4Z"/>
  <path class="st1" d="M97.9,33.8h2.4c.6,0,.8.2.8.8v1.8c0,.6-.2.8-.8.8h-2.4c-.6,0-.8-.2-.8-.8v-1.8c0-.6.2-.8.8-.8M100.5,34.3h-2.8v2.4h2.8v-2.4Z"/>
  <path class="st1" d="M107.2,35.1v2.1h-.6v-3.4h.5l2.5,2.2c.2.1.3.3.4.5,0-.2,0-.4,0-.6v-2h.6v3.4h-.4l-2.5-2.2c-.2-.1-.3-.3-.4-.5,0,.2,0,.4,0,.6"/>
  <path class="st1" d="M117.5,33.8h.6l2,3.4h-.7l-.4-.8h-2.3l-.4.8h-.6l2-3.4ZM118.7,35.9l-.9-1.6-.9,1.6h1.8Z"/>
  <polygon class="st1" points="125.1 33.8 125.8 33.8 125.8 36.7 128.4 36.7 128.4 37.2 125.1 37.2 125.1 33.8"/>
  <polygon class="st1" points="142 37.2 141.4 37.2 141.4 34.3 139.8 34.3 139.8 33.8 143.6 33.8 143.6 34.3 142 34.3 142 37.2"/>
  <path class="st1" d="M148.6,33.8h2.7c.5,0,.7.2.7.7v.8c0,.5-.2.6-.7.6h-.4l1.5,1.3h-.9l-1.4-1.3h-.9v1.3h-.6v-3.4ZM149.2,34.3v1.1h1.8c.3,0,.4,0,.4-.3v-.4c0-.3-.1-.3-.4-.3h-1.8Z"/>
  <path class="st1" d="M159,33.8h.6l2,3.4h-.7l-.4-.8h-2.3l-.4.8h-.6l2-3.4ZM160.2,35.9l-.9-1.6-.9,1.6h1.8Z"/>
  <rect class="st1" x="166.6" y="33.8" width=".6" height="3.4"/>
  <path class="st1" d="M173.4,35.1v2.1h-.6v-3.4h.5l2.5,2.2c.2.1.3.3.4.5,0-.2,0-.4,0-.6v-2h.6v3.4h-.4l-2.5-2.2c-.2-.1-.3-.3-.4-.5,0,.2,0,.4,0,.6"/>
  <polygon class="st1" points="182.3 33.8 185.7 33.8 185.7 34.3 182.9 34.3 182.9 35.2 184.6 35.2 184.6 35.7 182.9 35.7 182.9 36.7 185.7 36.7 185.7 37.2 182.3 37.2 182.3 33.8"/>
  <path class="st1" d="M190.9,33.8h2.7c.5,0,.7.2.7.7v.8c0,.5-.2.6-.7.6h-.4l1.5,1.3h-.9l-1.4-1.3h-.9v1.3h-.6v-3.4ZM191.6,34.3v1.1h1.8c.3,0,.4,0,.4-.3v-.4c0-.3-.1-.3-.4-.3h-1.8Z"/>
</svg>